<?xml version="1.0" standalone="no"?>
<!DOCTYPE svg PUBLIC "-//W3C//DTD SVG 20010904//EN"
 "http://www.w3.org/TR/2001/REC-SVG-20010904/DTD/svg10.dtd">
<svg version="1.0" xmlns="http://www.w3.org/2000/svg"
 width="493.000000pt" height="180.000000pt" viewBox="0 0 493.000000 180.000000"
 preserveAspectRatio="xMidYMid meet">
<g transform="translate(0.000000,180.000000) scale(0.100000,-0.100000)"
fill="#000000" stroke="none">
<path d="M4770 1788 c-665 -186 -3565 -962 -3618 -968 -76 -8 -190 1 -252 21
-161 52 -272 175 -301 334 -22 116 10 291 80 448 32 70 39 101 21 95 -18 -6
-201 -242 -289 -373 -203 -301 -304 -534 -317 -734 -14 -202 51 -331 220 -436
130 -80 278 -110 457 -94 238 22 300 46 1954 761 1737 751 2108 914 2113 927
3 7 -1 17 -9 22 -16 10 -13 10 -59 -3z"/>
</g>
</svg>
